<?xml version="1.0" encoding="utf-8"?>
<!-- Svg Vector Icons : http://www.onlinewebfonts.com/icon -->
<!DOCTYPE svg PUBLIC "-//W3C//DTD SVG 1.1//EN" "http://www.w3.org/Graphics/SVG/1.1/DTD/svg11.dtd">
<svg version="1.1" xmlns="http://www.w3.org/2000/svg" xmlns:xlink="http://www.w3.org/1999/xlink" x="0px" y="0px" viewBox="0 0 1000 1000" enable-background="new 0 0 1000 1000" xml:space="preserve">
<metadata> Svg Vector Icons : http://www.onlinewebfonts.com/icon </metadata>
<g><g transform="translate(0.000000,511.000000) scale(0.100000,-0.100000)"><path d="M2325.7,4239.1c-189.6-21.1-400.4-70.9-574.7-134.1C961.7,3817.6,341,3018.8,145.6,2032.2c-57.5-289.3-61.3-781.6-7.7-1038.3c92-442.5,296.9-850.6,659-1308.4c185.8-237.6,387-415.7,722.2-643.7c1950.2-1331.4,3233.7-2448.3,3434.9-2992.4c17.2-46,36.4-84.3,44.1-84.3c5.7,0,21.1,32.6,32.6,72.8c30.6,99.6,185.8,331.4,354.4,523c113,128.4,137.9,170.5,126.4,199.2c-7.6,21.1-15.3,111.1-15.3,201.1l-1.9,162.8l-178.2-182c-97.7-99.6-210.7-220.3-249-266.3l-70.9-86.2l-70.9,86.2c-137.9,166.7-653.3,666.7-929.1,902.3c-544.1,463.6-1310.3,1040.2-2101.5,1582.4c-486.6,335.3-601.5,427.2-774,626.4C754.8,210.3,503.9,698.8,436.8,1122.2c-30.7,191.6-13.4,720.3,28.7,915.7c107.3,490.4,344.8,944.4,674.3,1285.4c408,423.4,862.1,611.1,1480.8,611.1c572.8,0,1128.4-185.8,1498.1-501.9c260.5-222.2,530.6-498.1,590-601.5c70.9-128.3,155.2-180.1,287.4-180.1c128.3,0,214.6,51.7,281.6,168.6c118.8,210.7,657.1,697.3,923.4,835.3c360.2,185.8,754.8,279.7,1170.5,279.7c618.8,0,1072.8-187.7,1480.8-611.1C9182,2980.4,9415.8,2536,9526.9,2036c42.1-193.5,59.4-697.3,28.7-900.4c-32.6-226-101.5-436.8-220.3-662.8l-99.6-193.5l111.1-116.9l111.1-116.9l74.7,128.4c298.9,515.3,413.8,1040.2,350.6,1595.8c-97.7,850.6-494.2,1586.2-1099.6,2038.3c-659,494.3-1593.9,584.3-2475.1,241.4c-256.7-101.5-463.6-228-683.9-417.6c-183.9-159-538.3-513.4-597.7-597.7l-32.6-47.9l-32.6,47.9c-115,176.3-699.2,710.7-919.6,842.9C3563.3,4160.5,2883.2,4304.2,2325.7,4239.1z"/><path d="M5963.6,1539.8c-51.7-21.1-116.9-93.9-141.8-159c-13.4-34.5-21.1-287.4-21.1-695.4V45.6h-655.2c-622.6,0-660.9-1.9-720.3-38.3c-34.5-21.1-78.5-65.1-99.6-99.6c-36.4-59.4-38.3-97.7-38.3-791.2c0-693.5,1.9-731.8,38.3-791.2c21.1-34.5,65.1-78.5,99.6-99.6c59.4-36.4,97.7-38.3,720.3-38.3h655.2v-641.8c0-706.9,1.9-726.1,113-819.9l63.2-51.7h749c710.7,0,754.8,1.9,812.3,38.3c111.1,67.1,111.1,67.1,120.7,795l9.6,670.5l670.5,9.6c735.6,9.6,731.8,9.6,808.4,128.4c30.6,47.9,34.5,116.8,34.5,800.8v747.1L9138-73.2c-24.9,32.6-63.2,72.8-86.2,86.2c-30.7,17.3-228,24.9-712.7,32.6l-670.5,9.6l-9.6,670.5c-9.6,728-9.6,728-120.7,795c-57.5,36.4-101.5,38.3-798.9,36.4C6333.4,1557.1,5984.7,1549.4,5963.6,1539.8z M7371.7,616.4c0-712.6,1.9-728,132.2-814.2c65.1-44.1,70.9-44.1,712.6-44.1H8866v-641.8v-641.8h-649.4c-911.9,0-844.8,67.1-844.8-856.3v-637.9h-632.2h-632.2v628.4c0,572.8-3.8,634.1-36.4,706.9c-69,149.4-59.4,147.5-806.5,159l-660.9,9.6v632.2v632.2l660.9,9.6c747.1,11.5,737.6,9.6,806.5,159c32.6,72.8,36.4,134.1,36.4,708.8v626.4h632.2h632.2V616.4z"/></g></g>
</svg>